<svg xmlns="http://www.w3.org/2000/svg" viewBox="0 0 14 12" width="128" height="109.71428571428571">
  <path fill="currentColor" d="M1 5.25006C0.585786 5.25006 0.25 5.58585 0.25 6.00006C0.25 6.41427 0.585786 6.75006 1 6.75006L1 5.25006ZM13.5303 6.53039C13.8232 6.2375 13.8232 5.76263 13.5303 5.46973L8.75736 0.696761C8.46447 0.403867 7.98959 0.403867 7.6967 0.696761C7.40381 0.989654 7.40381 1.46453 7.6967 1.75742L11.9393 6.00006L7.6967 10.2427C7.40381 10.5356 7.40381 11.0105 7.6967 11.3034C7.98959 11.5963 8.46447 11.5963 8.75736 11.3034L13.5303 6.53039ZM1 6.75006L13 6.75006L13 5.25006L1 5.25006L1 6.75006Z"></path>
</svg>